<?xml version="1.0"?>
<svg xmlns="http://www.w3.org/2000/svg" xmlns:xlink="http://www.w3.org/1999/xlink" version="1.1" id="Capa_1" x="0px" y="0px" width="512px" height="512px" viewBox="0 0 109.128 109.128" style="enable-background:new 0 0 109.128 109.128;" xml:space="preserve" class=""><g transform="matrix(-1 -1.22465e-16 1.22465e-16 -1 109.128 109.128)"><g>
	<g>
		<path d="M100.218,5.94c0-3.3-2.668-5.94-5.941-5.94H14.906c-3.3,0-5.94,2.667-5.94,5.94c0,3.3,2.668,5.94,5.94,5.94h79.371    C97.55,11.908,100.218,9.24,100.218,5.94z" data-original="#000000" class="active-path" fill="#000000"/>
		<path d="M8.91,63.502c0,3.301,2.668,5.941,5.941,5.941h33.772v33.744c0,3.301,2.668,5.94,5.94,5.94    c3.301,0,5.941-2.668,5.941-5.94V69.443h33.744c3.301,0,5.941-2.668,5.941-5.941c0-3.271-2.668-5.939-5.941-5.939H60.503V23.817    c0-3.3-2.668-5.94-5.941-5.94c-3.3,0-5.94,2.667-5.94,5.94v33.718H14.878C11.578,57.535,8.91,60.201,8.91,63.502z" data-original="#000000" class="active-path" fill="#000000"/>
	</g>
</g></g> </svg>
